<mxfile host="app.diagrams.net" modified="2024-05-31T19:55:41.065Z" agent="Mozilla/5.0 (Windows NT 10.0; Win64; x64) AppleWebKit/537.36 (KHTML, like Gecko) Chrome/124.0.0.0 Safari/537.36 OPR/110.0.0.0" etag="ChXCZsT3QO08kPlRchXJ" version="24.4.13" type="device">
  <diagram name="Strona-1" id="Lhqy9W5lWyA6wLCeDwkM">
    <mxGraphModel dx="1620" dy="781" grid="1" gridSize="10" guides="1" tooltips="1" connect="1" arrows="1" fold="1" page="1" pageScale="1" pageWidth="827" pageHeight="1169" math="0" shadow="0">
      <root>
        <mxCell id="0" />
        <mxCell id="1" parent="0" />
        <mxCell id="zQ1e7Cn9LS57d5TeXhdv-1" value="" style="rounded=0;whiteSpace=wrap;html=1;" vertex="1" parent="1">
          <mxGeometry y="40" width="1030" height="60" as="geometry" />
        </mxCell>
        <mxCell id="zQ1e7Cn9LS57d5TeXhdv-2" value="" style="rounded=0;whiteSpace=wrap;html=1;" vertex="1" parent="1">
          <mxGeometry x="890" y="40" width="120" height="60" as="geometry" />
        </mxCell>
        <mxCell id="zQ1e7Cn9LS57d5TeXhdv-3" value="Wyloguj się" style="text;html=1;align=center;verticalAlign=middle;whiteSpace=wrap;rounded=0;" vertex="1" parent="1">
          <mxGeometry x="920" y="55" width="60" height="30" as="geometry" />
        </mxCell>
        <mxCell id="zQ1e7Cn9LS57d5TeXhdv-4" value="&lt;font style=&quot;font-size: 18px;&quot;&gt;LOGO&lt;/font&gt;" style="text;html=1;align=center;verticalAlign=middle;resizable=0;points=[];autosize=1;strokeColor=none;fillColor=none;" vertex="1" parent="1">
          <mxGeometry x="30" y="50" width="80" height="40" as="geometry" />
        </mxCell>
        <mxCell id="zQ1e7Cn9LS57d5TeXhdv-5" value="" style="rounded=0;whiteSpace=wrap;html=1;" vertex="1" parent="1">
          <mxGeometry y="100" width="1030" height="620" as="geometry" />
        </mxCell>
        <mxCell id="zQ1e7Cn9LS57d5TeXhdv-6" value="" style="rounded=0;whiteSpace=wrap;html=1;" vertex="1" parent="1">
          <mxGeometry x="30" y="160" width="730" height="60" as="geometry" />
        </mxCell>
        <mxCell id="zQ1e7Cn9LS57d5TeXhdv-7" value="&lt;font style=&quot;font-size: 14px;&quot;&gt;Zamówienia&lt;/font&gt;" style="text;html=1;align=center;verticalAlign=middle;resizable=0;points=[];autosize=1;strokeColor=none;fillColor=none;" vertex="1" parent="1">
          <mxGeometry x="25" y="120" width="100" height="30" as="geometry" />
        </mxCell>
        <mxCell id="zQ1e7Cn9LS57d5TeXhdv-8" value="" style="rounded=0;whiteSpace=wrap;html=1;" vertex="1" parent="1">
          <mxGeometry x="30" y="240" width="730" height="60" as="geometry" />
        </mxCell>
        <mxCell id="zQ1e7Cn9LS57d5TeXhdv-9" value="" style="rounded=0;whiteSpace=wrap;html=1;" vertex="1" parent="1">
          <mxGeometry x="30" y="330" width="730" height="60" as="geometry" />
        </mxCell>
        <mxCell id="zQ1e7Cn9LS57d5TeXhdv-10" value="" style="rounded=0;whiteSpace=wrap;html=1;" vertex="1" parent="1">
          <mxGeometry x="30" y="160" width="80" height="60" as="geometry" />
        </mxCell>
        <mxCell id="zQ1e7Cn9LS57d5TeXhdv-11" value="" style="rounded=0;whiteSpace=wrap;html=1;" vertex="1" parent="1">
          <mxGeometry x="30" y="240" width="80" height="60" as="geometry" />
        </mxCell>
        <mxCell id="zQ1e7Cn9LS57d5TeXhdv-12" value="" style="rounded=0;whiteSpace=wrap;html=1;" vertex="1" parent="1">
          <mxGeometry x="30" y="330" width="80" height="60" as="geometry" />
        </mxCell>
        <mxCell id="zQ1e7Cn9LS57d5TeXhdv-13" value="Nazwa produktu" style="text;html=1;align=center;verticalAlign=middle;whiteSpace=wrap;rounded=0;" vertex="1" parent="1">
          <mxGeometry x="140" y="175" width="120" height="30" as="geometry" />
        </mxCell>
        <mxCell id="zQ1e7Cn9LS57d5TeXhdv-14" value="Nazwa produktu" style="text;html=1;align=center;verticalAlign=middle;whiteSpace=wrap;rounded=0;" vertex="1" parent="1">
          <mxGeometry x="140" y="255" width="120" height="30" as="geometry" />
        </mxCell>
        <mxCell id="zQ1e7Cn9LS57d5TeXhdv-15" value="Nazwa produktu" style="text;html=1;align=center;verticalAlign=middle;whiteSpace=wrap;rounded=0;" vertex="1" parent="1">
          <mxGeometry x="140" y="345" width="120" height="30" as="geometry" />
        </mxCell>
        <mxCell id="zQ1e7Cn9LS57d5TeXhdv-16" value="Cena" style="text;html=1;align=center;verticalAlign=middle;resizable=0;points=[];autosize=1;strokeColor=none;fillColor=none;" vertex="1" parent="1">
          <mxGeometry x="530" y="175" width="50" height="30" as="geometry" />
        </mxCell>
        <mxCell id="zQ1e7Cn9LS57d5TeXhdv-17" value="Cena" style="text;html=1;align=center;verticalAlign=middle;resizable=0;points=[];autosize=1;strokeColor=none;fillColor=none;" vertex="1" parent="1">
          <mxGeometry x="530" y="255" width="50" height="30" as="geometry" />
        </mxCell>
        <mxCell id="zQ1e7Cn9LS57d5TeXhdv-18" value="Cena" style="text;html=1;align=center;verticalAlign=middle;resizable=0;points=[];autosize=1;strokeColor=none;fillColor=none;" vertex="1" parent="1">
          <mxGeometry x="530" y="345" width="50" height="30" as="geometry" />
        </mxCell>
        <mxCell id="zQ1e7Cn9LS57d5TeXhdv-19" value="Ilość" style="text;html=1;align=center;verticalAlign=middle;resizable=0;points=[];autosize=1;strokeColor=none;fillColor=none;" vertex="1" parent="1">
          <mxGeometry x="590" y="345" width="50" height="30" as="geometry" />
        </mxCell>
        <mxCell id="zQ1e7Cn9LS57d5TeXhdv-20" value="Ilość" style="text;html=1;align=center;verticalAlign=middle;resizable=0;points=[];autosize=1;strokeColor=none;fillColor=none;" vertex="1" parent="1">
          <mxGeometry x="590" y="255" width="50" height="30" as="geometry" />
        </mxCell>
        <mxCell id="zQ1e7Cn9LS57d5TeXhdv-21" value="Ilość" style="text;html=1;align=center;verticalAlign=middle;resizable=0;points=[];autosize=1;strokeColor=none;fillColor=none;" vertex="1" parent="1">
          <mxGeometry x="590" y="175" width="50" height="30" as="geometry" />
        </mxCell>
        <mxCell id="zQ1e7Cn9LS57d5TeXhdv-22" value="X" style="text;html=1;align=center;verticalAlign=middle;resizable=0;points=[];autosize=1;strokeColor=none;fillColor=none;" vertex="1" parent="1">
          <mxGeometry x="700" y="255" width="30" height="30" as="geometry" />
        </mxCell>
        <mxCell id="zQ1e7Cn9LS57d5TeXhdv-23" value="X" style="text;html=1;align=center;verticalAlign=middle;resizable=0;points=[];autosize=1;strokeColor=none;fillColor=none;" vertex="1" parent="1">
          <mxGeometry x="700" y="345" width="30" height="30" as="geometry" />
        </mxCell>
        <mxCell id="zQ1e7Cn9LS57d5TeXhdv-24" value="" style="rounded=0;whiteSpace=wrap;html=1;" vertex="1" parent="1">
          <mxGeometry x="700" y="177.5" width="30" height="25" as="geometry" />
        </mxCell>
        <mxCell id="zQ1e7Cn9LS57d5TeXhdv-25" value="X" style="text;html=1;align=center;verticalAlign=middle;resizable=0;points=[];autosize=1;strokeColor=none;fillColor=none;" vertex="1" parent="1">
          <mxGeometry x="700" y="175" width="30" height="30" as="geometry" />
        </mxCell>
        <mxCell id="zQ1e7Cn9LS57d5TeXhdv-26" value="" style="rounded=0;whiteSpace=wrap;html=1;" vertex="1" parent="1">
          <mxGeometry x="700" y="257.5" width="30" height="25" as="geometry" />
        </mxCell>
        <mxCell id="zQ1e7Cn9LS57d5TeXhdv-27" value="" style="rounded=0;whiteSpace=wrap;html=1;" vertex="1" parent="1">
          <mxGeometry x="700" y="347.5" width="30" height="25" as="geometry" />
        </mxCell>
        <mxCell id="zQ1e7Cn9LS57d5TeXhdv-28" value="X" style="text;html=1;align=center;verticalAlign=middle;resizable=0;points=[];autosize=1;strokeColor=none;fillColor=none;" vertex="1" parent="1">
          <mxGeometry x="700" y="255" width="30" height="30" as="geometry" />
        </mxCell>
        <mxCell id="zQ1e7Cn9LS57d5TeXhdv-29" value="X" style="text;html=1;align=center;verticalAlign=middle;resizable=0;points=[];autosize=1;strokeColor=none;fillColor=none;" vertex="1" parent="1">
          <mxGeometry x="700" y="345" width="30" height="30" as="geometry" />
        </mxCell>
        <mxCell id="zQ1e7Cn9LS57d5TeXhdv-30" value="" style="rounded=0;whiteSpace=wrap;html=1;" vertex="1" parent="1">
          <mxGeometry x="730" y="550" width="230" height="100" as="geometry" />
        </mxCell>
        <mxCell id="zQ1e7Cn9LS57d5TeXhdv-31" value="&lt;font style=&quot;font-size: 24px;&quot;&gt;Zamów&lt;/font&gt;" style="text;html=1;align=center;verticalAlign=middle;resizable=0;points=[];autosize=1;strokeColor=none;fillColor=none;" vertex="1" parent="1">
          <mxGeometry x="795" y="580" width="100" height="40" as="geometry" />
        </mxCell>
      </root>
    </mxGraphModel>
  </diagram>
</mxfile>
